<svg width="640" height="442" viewBox="0 0 640 442" fill="none" xmlns="http://www.w3.org/2000/svg">
<g clip-path="url(#clip0_1_936)">
<path opacity="0.67" d="M317.397 442C488.599 442 627.386 421.74 627.386 396.748C627.386 371.756 488.599 351.496 317.397 351.496C146.194 351.496 7.4071 371.756 7.4071 396.748C7.4071 421.74 146.194 442 317.397 442Z" fill="#8BCDE5"/>
<g opacity="0.35">
<path d="M317.382 351.546C150.285 351.546 14.0231 370.802 7.65162 394.978C-8.16932 369.571 1.35201 333.646 28.3914 317.679C35.2807 313.612 43.0905 310.713 49.16 305.692C67.8575 290.227 62.9817 263.101 67.7712 240.556C72.9202 216.393 91.6895 194.928 116.514 184.848C143.036 174.091 175.483 175.547 198.366 159.316C218.703 144.894 225.851 120.404 237.573 99.6416C264.425 51.942 320.518 19.9455 379.372 14.1463C438.226 8.34699 498.561 27.3515 544.197 61.4568C568.648 79.6956 589.603 102.88 598.492 130.358C611.968 172.045 596.147 216.23 590.667 259.41C589.92 265.297 589.402 271.411 591.502 276.984C596.377 290.026 612.946 295.687 623.748 305.39C645.724 325.11 641.007 357.709 634.808 385.137L627.358 396.434C626.351 371.63 487.99 351.546 317.382 351.546Z" fill="#8BCDE5"/>
</g>
<path opacity="0.67" d="M565.124 407.017C594.038 407.017 617.477 403.459 617.477 399.071C617.477 394.682 594.038 391.125 565.124 391.125C536.21 391.125 512.771 394.682 512.771 399.071C512.771 403.459 536.21 407.017 565.124 407.017Z" fill="#8BCDE5"/>
<path d="M100.909 46.4695L94.2353 29.3478L74.4447 23.9879L94.753 17.8748L101.196 0L107.87 17.1217L127.661 22.469L106.935 29.0215L100.909 46.4695Z" fill="#8BCDE5"/>
<path d="M492.376 106.521L485.703 89.3996L465.912 84.0397L486.22 77.9266L492.678 60.0518L499.337 77.1609L519.128 82.5208L498.403 89.0732L492.376 106.521Z" fill="#8BCDE5"/>
<path d="M552.568 117.718L549.159 108.994L539.077 106.257L549.432 103.144L552.712 94.0312L556.12 102.755L566.203 105.492L555.631 108.831L552.568 117.718Z" fill="white"/>
<path d="M93.0415 256.888L89.6472 248.164L79.5649 245.427L89.9061 242.314L93.1997 233.201L96.594 241.925L106.691 244.662L96.1194 247.988L93.0415 256.888Z" fill="white"/>
<path d="M517.388 139.095L513.979 130.371L503.897 127.634L514.238 124.521L517.532 115.408L520.926 124.132L531.022 126.869L520.451 130.208L517.388 139.095Z" fill="#8BCDE5"/>
<path d="M154.499 99.9562L151.104 91.2322L141.022 88.4957L151.363 85.3827L154.657 76.2695L158.051 84.9935L168.148 87.73L157.577 91.0564L154.499 99.9562Z" fill="#8BCDE5"/>
<path d="M130.782 59.5497C130.785 60.0641 130.612 60.5677 130.287 60.9967C129.962 61.4256 129.498 61.7606 128.954 61.9592C128.41 62.1578 127.811 62.2111 127.232 62.1122C126.654 62.0134 126.122 61.7669 125.704 61.404C125.287 61.0411 125.002 60.5782 124.886 60.0738C124.769 59.5694 124.828 59.0463 125.053 58.5708C125.277 58.0953 125.659 57.6887 126.149 57.4027C126.639 57.1166 127.215 56.9639 127.804 56.9639C128.592 56.9639 129.347 57.2359 129.905 57.7205C130.463 58.2051 130.778 58.8627 130.782 59.5497Z" fill="#8BCDE5"/>
<path d="M591.832 182.614C591.832 183.128 591.658 183.63 591.331 184.058C591.004 184.485 590.539 184.818 589.995 185.015C589.451 185.211 588.852 185.263 588.274 185.162C587.697 185.062 587.166 184.815 586.75 184.451C586.334 184.088 586.05 183.625 585.935 183.121C585.82 182.617 585.879 182.094 586.105 181.62C586.33 181.145 586.712 180.739 587.201 180.454C587.691 180.168 588.266 180.016 588.855 180.016C589.645 180.016 590.402 180.289 590.96 180.777C591.519 181.264 591.832 181.925 591.832 182.614Z" fill="#8BCDE5"/>
<path d="M586.54 216.983C586.542 217.498 586.37 218.001 586.045 218.43C585.719 218.859 585.255 219.194 584.712 219.393C584.168 219.591 583.569 219.645 582.99 219.546C582.412 219.447 581.88 219.2 581.462 218.838C581.044 218.475 580.76 218.012 580.643 217.507C580.527 217.003 580.586 216.48 580.81 216.004C581.035 215.529 581.417 215.122 581.907 214.836C582.397 214.55 582.973 214.397 583.562 214.397C584.349 214.397 585.105 214.669 585.662 215.154C586.22 215.639 586.536 216.296 586.54 216.983Z" fill="#8BCDE5"/>
<path d="M552.395 211.033C552.395 211.547 552.221 212.049 551.893 212.477C551.566 212.904 551.101 213.237 550.557 213.434C550.013 213.63 549.415 213.682 548.837 213.581C548.26 213.481 547.729 213.234 547.313 212.87C546.896 212.507 546.613 212.044 546.498 211.54C546.383 211.036 546.442 210.513 546.667 210.039C546.893 209.564 547.274 209.158 547.764 208.872C548.253 208.587 548.829 208.435 549.418 208.435C549.809 208.433 550.197 208.499 550.56 208.629C550.922 208.759 551.251 208.95 551.527 209.192C551.804 209.434 552.023 209.721 552.172 210.037C552.321 210.353 552.397 210.691 552.395 211.033Z" fill="#8BCDE5"/>
<path d="M82.2258 157.258C82.2286 157.773 82.056 158.277 81.73 158.706C81.404 159.135 80.9391 159.47 80.3945 159.668C79.8499 159.867 79.2501 159.919 78.6713 159.819C78.0924 159.719 77.5606 159.472 77.1434 159.108C76.7261 158.743 76.4423 158.279 76.3279 157.774C76.2135 157.269 76.2736 156.745 76.5007 156.27C76.7279 155.795 77.1117 155.389 77.6035 155.105C78.0953 154.82 78.6729 154.669 79.2629 154.672C80.0476 154.675 80.799 154.949 81.3538 155.433C81.9086 155.917 82.222 156.573 82.2258 157.258Z" fill="#8BCDE5"/>
<path d="M64.3912 138.241C64.3912 138.755 64.2162 139.258 63.8884 139.686C63.5606 140.113 63.0948 140.446 62.55 140.643C62.0051 140.839 61.4057 140.89 60.8278 140.788C60.2499 140.687 59.7195 140.438 59.3037 140.074C58.8879 139.709 58.6055 139.245 58.4922 138.74C58.379 138.235 58.44 137.712 58.6675 137.238C58.8951 136.763 59.2789 136.358 59.7704 136.074C60.2619 135.79 60.8389 135.64 61.4284 135.643C61.8187 135.643 62.2051 135.71 62.5655 135.841C62.9259 135.971 63.2532 136.163 63.5285 136.404C63.8038 136.646 64.0217 136.932 64.1698 137.248C64.3178 137.563 64.3931 137.9 64.3912 138.241Z" fill="#8BCDE5"/>
<path d="M474.686 41.7753C474.688 42.2897 474.516 42.7933 474.191 43.2223C473.865 43.6512 473.401 43.9862 472.858 44.1848C472.314 44.3834 471.715 44.4367 471.136 44.3378C470.558 44.239 470.026 43.9925 469.608 43.6296C469.191 43.2667 468.906 42.8038 468.789 42.2994C468.673 41.795 468.732 41.2719 468.956 40.7964C469.181 40.3209 469.563 39.9143 470.053 39.6283C470.543 39.3422 471.119 39.1895 471.708 39.1895C472.099 39.1878 472.485 39.2535 472.847 39.3827C473.208 39.5119 473.536 39.7021 473.813 39.9424C474.089 40.1827 474.309 40.4683 474.459 40.7828C474.609 41.0974 474.686 41.4347 474.686 41.7753Z" fill="#8BCDE5"/>
<g opacity="0.48">
<path d="M159.101 251.051C143.789 231.931 130.007 211.913 117.852 191.138C108.137 174.439 100.054 157.055 93.6887 139.17L95.1269 102.115C95.6879 87.4286 95.5009 70.9471 83.6208 60.5285C80.7443 58.018 76.6164 55.8464 72.6468 56.7628C68.0012 57.8925 65.9157 62.5495 64.9809 66.6793C59.2278 92.2488 71.9565 118.145 89.1006 139.735C91.0566 145.384 93.2284 151.032 95.5728 156.518C104.979 178.204 116.609 199.105 130.321 218.967C137.973 230.264 146.142 241.247 154.772 252.03C155.462 253.059 159.504 251.553 159.101 251.051Z" fill="#4D82A3"/>
</g>
<g opacity="0.48">
<path d="M145.092 241.26C137.725 225.269 131.631 208.853 126.855 192.13C123.059 178.704 120.567 165.024 119.405 151.233L127.517 124.798C130.724 114.316 133.73 102.429 127.172 93.2155C125.575 90.9686 123.029 88.8347 119.98 88.9477C116.428 89.0857 114.04 92.136 112.573 94.9603C103.526 112.534 107.769 132.969 115.967 151.02C116.298 155.363 116.787 159.706 117.406 164.024C120.025 180.991 124.396 197.716 130.465 213.996C133.816 223.222 137.657 232.323 141.669 241.323C142.072 242.176 145.279 241.687 145.092 241.26Z" fill="#4D82A3"/>
</g>
<g opacity="0.48">
<path d="M200.236 243.846C181.227 239.164 162.614 233.334 144.531 226.398C130.037 220.813 116.108 214.17 102.894 206.539L83.9373 184.773C76.4152 176.137 67.4691 166.798 55.172 165.681C52.1516 165.417 48.6566 165.869 46.9019 168.028C44.8452 170.539 46.154 174.079 47.8224 176.815C58.2067 193.786 79.3348 203.376 100.707 208.761C104.859 211.188 109.088 213.502 113.393 215.703C130.354 224.292 148.17 231.527 166.623 237.318C177.036 240.645 187.608 243.594 198.265 246.293C199.186 246.482 200.739 243.971 200.236 243.846Z" fill="#4D82A3"/>
</g>
<g opacity="0.48">
<path d="M449.315 279.859C467.096 266.818 483.825 252.722 499.381 237.67C511.845 225.55 523.113 212.533 533.065 198.757L541.407 167.375C544.729 154.936 549.145 141.141 561.787 134.739C564.879 133.17 568.878 132.228 571.956 133.772C575.566 135.63 576.112 139.948 575.839 143.601C574.099 166.195 556.724 185.401 536.761 200.188C533.655 204.539 530.399 208.811 526.995 213.004C513.515 229.377 498.371 244.657 481.748 258.657C472.413 266.616 462.705 274.235 452.766 281.616C451.86 282.269 448.84 280.21 449.315 279.859Z" fill="#4D82A3"/>
</g>
<g opacity="0.48">
<path d="M463.611 274.398C473.902 262.418 483.239 249.836 491.556 236.741C498.223 226.228 503.861 215.243 508.413 203.903C508.413 195.978 508.413 188.049 508.413 180.116C508.413 170.702 508.959 160.133 516.827 153.681C518.754 152.099 521.429 150.819 524.018 151.509C526.967 152.312 528.189 155.35 528.678 158.011C531.756 174.518 522.925 190.849 511.419 204.456C509.981 208.033 508.542 211.585 506.845 215.088C500.269 228.812 492.288 241.992 482.999 254.465C477.807 261.557 472.284 268.448 466.545 275.202C465.898 275.754 463.338 274.712 463.611 274.398Z" fill="#4D82A3"/>
</g>
<g opacity="0.48">
<path d="M416.652 265.737C433.798 265.513 450.906 264.255 467.854 261.972C481.46 260.125 494.864 257.282 507.924 253.474L529.498 238.925C538.041 233.176 547.951 227.076 558.623 228.569C561.226 228.933 564.031 230 564.951 232.159C566.016 234.67 564.016 237.394 561.917 239.365C548.828 251.578 528.621 255.469 509.29 255.796C505.177 257.051 501.035 258.131 496.849 259.135C480.367 262.995 463.519 265.549 446.51 266.767C436.917 267.507 427.28 267.922 417.658 268.085C416.824 268.148 416.206 265.75 416.652 265.737Z" fill="#4D82A3"/>
</g>
<path d="M616.283 356.944C616.281 353.815 615.856 350.697 615.017 347.655H614.255C612.817 342.095 593.63 337.701 570.201 337.701C545.822 337.701 526.046 342.459 526.046 348.346C526.032 348.521 526.032 348.697 526.046 348.873C523.915 357.762 525.341 367.02 530.087 375.102C534.832 383.184 542.61 389.602 552.122 393.284C548.253 394.2 545.88 395.405 545.88 396.723C545.88 399.585 556.969 401.907 570.647 401.907C584.325 401.907 595.414 399.585 595.414 396.723C595.414 395.405 593.041 394.213 589.172 393.284C597.236 390.166 604.09 385.074 608.902 378.623C613.715 372.172 616.279 364.642 616.283 356.944Z" fill="#DC903C"/>
<path opacity="0.11" d="M616.283 356.944C616.281 353.815 615.856 350.697 615.017 347.655H614.255C613.78 345.835 611.378 344.128 607.553 342.634C609.994 345.862 611.445 349.584 611.767 353.442C612.702 363.835 605.697 374.781 595.816 380.317C585.936 385.852 573.049 386.304 561.859 383.781C545.477 380.078 531.123 369.973 525.14 356.906C525.136 364.597 527.689 372.123 532.488 378.574C537.288 385.024 544.128 390.12 552.179 393.246C548.31 394.162 545.937 395.367 545.937 396.685C545.937 399.547 557.026 401.869 570.704 401.869C584.382 401.869 595.471 399.547 595.471 396.685C595.471 395.367 593.098 394.175 589.229 393.246C597.276 390.123 604.113 385.033 608.915 378.591C613.716 372.148 616.275 364.629 616.283 356.944Z" fill="#2B3448"/>
<path d="M570.158 356.969C589.897 356.969 605.899 353.108 605.899 348.345C605.899 343.583 589.897 339.722 570.158 339.722C550.419 339.722 534.417 343.583 534.417 348.345C534.417 353.108 550.419 356.969 570.158 356.969Z" fill="#74471B"/>
<path d="M570.431 352.538C563.513 348.773 556.509 345.007 551.259 339.597C546.009 334.187 542.73 326.856 544.585 319.965C545.491 316.588 547.577 313.387 547.462 309.923C547.289 302.604 538.228 298.337 533.237 292.462C527.24 285.382 527.254 275.842 527.484 267.056C531.166 276.658 543.794 280.725 552.668 287.253C562.521 294.458 568.115 305.316 570.503 316.324C572.89 327.333 572.387 338.668 571.855 349.865L570.431 352.538Z" fill="#5CA28B"/>
<g opacity="0.18">
<path d="M560.191 305.428C553.488 290.591 536.891 282.244 527.585 269.402C527.412 277.511 527.887 286.009 533.338 292.449C538.329 298.336 547.39 302.604 547.563 309.922C547.634 313.386 545.549 316.587 544.686 319.964C542.831 326.855 546.124 334.199 551.36 339.596C555.588 343.725 560.505 347.275 565.944 350.128C567.08 334.876 566.476 319.487 560.191 305.428Z" fill="#2B3448"/>
</g>
<path d="M570.388 352.501C565.93 347.681 563.033 341.906 561.999 335.778C560.964 329.65 561.83 323.392 564.505 317.655C568.302 309.822 575.551 303.018 576.486 294.545C576.961 290.34 575.796 286.123 575.666 281.88C575.504 275.962 577.367 270.137 581.017 265.147C579.133 282.508 593.271 298.587 593.271 316.061C593.271 329.517 570.388 352.501 570.388 352.501Z" fill="#5CA28B"/>
<g opacity="0.18">
<path d="M581.218 286.826C581.621 300.533 579.348 313.387 575.724 326.668C573.768 333.81 573.092 340.061 574.401 346.4C580.106 343.037 584.799 338.524 588.084 333.243C591.369 327.962 593.148 322.069 593.271 316.061C593.271 301.311 583.203 287.541 581.218 273.144C580.938 277.701 580.938 282.268 581.218 286.826Z" fill="#2B3448"/>
</g>
<path d="M570.258 352.451C570.33 341.241 570.906 328.877 579.693 320.705C587.086 313.852 599.038 311.303 605.079 303.496C610.343 296.705 609.681 287.818 611.853 279.847C614.116 271.664 619.409 264.362 626.912 259.072L629.414 283.537C630.407 293.265 631.356 303.307 627.976 312.596C624.323 322.463 615.967 330.584 606.301 336.597C596.636 342.609 585.648 346.764 574.746 350.869L570.258 352.451Z" fill="#5CA28B"/>
<g opacity="0.18">
<path d="M627.645 266.001C624.122 274.173 622.626 283.022 619.49 291.294C614.73 303.847 606.805 314.203 596.478 323.818C587.302 332.379 580.111 339.107 577.061 349.965C587.129 346.199 597.283 342.182 606.244 336.596C615.909 330.584 624.265 322.462 627.919 312.596C631.356 303.307 630.407 293.265 629.357 283.537C628.801 277.687 628.23 271.842 627.645 266.001Z" fill="#2B3448"/>
</g>
<path d="M111.739 360.434L80.543 369.346C80.543 369.346 324.085 430.929 335.461 434.895C346.838 438.862 524.392 385.237 524.392 385.237L474.312 371.329L111.739 360.434Z" fill="#8BCDE5"/>
<path d="M205.615 414.484L53.9206 383.354C51.8135 382.928 49.5989 383.248 47.7609 384.243C45.9229 385.238 44.6109 386.827 44.1117 388.664C43.6233 390.501 43.9874 392.432 45.1245 394.036C46.2615 395.64 48.0793 396.786 50.1811 397.225L201.89 428.342L205.615 414.484Z" fill="#2B3448"/>
<g style="mix-blend-mode:overlay" opacity="0.2">
<path d="M44.0254 391.576C44.313 392.935 45.0464 394.192 46.1365 395.195C47.2266 396.198 48.6266 396.903 50.1668 397.225L201.875 428.343L202.997 424.188L44.0254 391.576Z" fill="white"/>
</g>
<path d="M67.9687 386.124L64.1339 400.359L68.3482 401.224L72.183 386.988L67.9687 386.124Z" fill="#ECB751"/>
<path d="M136.902 400.285L133.067 414.521L137.281 415.385L141.116 401.15L136.902 400.285Z" fill="#ECB751"/>
<path d="M63.8109 389.178L63.3171 391.011L111.732 400.945L112.226 399.112L63.8109 389.178Z" fill="#ECB751"/>
<path d="M201.875 428.342L216.502 426.296L217.754 421.702L205.615 414.484L201.875 428.342Z" fill="#ECB751"/>
<path d="M507.521 382.087L495.21 377.066C479.389 369.534 489.457 324.446 489.457 324.446L348.248 360.107L109.064 308.165C101.168 334.262 107.626 368.631 107.626 368.631L328.759 421.351V421.565L348.147 425.958C513.159 383.957 507.521 382.087 507.521 382.087Z" fill="#DE6C6B"/>
<path d="M351.397 361.011L510.024 319.663L271.013 275.189L109.064 308.152L351.397 361.011Z" fill="#DE6C6B"/>
<path opacity="0.37" d="M112.458 366.822C111.306 362.647 110.489 358.407 110.013 354.132C109.531 349.853 109.344 345.552 109.452 341.253C109.557 336.951 110.038 332.662 110.89 328.424C111.778 324.191 113.201 320.057 115.133 316.098C114.544 318.181 113.695 320.202 113.35 322.311C113.005 324.42 112.429 326.491 112.055 328.587C111.437 332.803 111.063 337.042 110.934 341.291C110.804 345.546 110.934 349.801 111.135 354.057C111.25 356.178 111.423 358.312 111.638 360.433C111.854 362.555 112.185 364.689 112.458 366.822Z" fill="#2B3448"/>
<path opacity="0.37" d="M335.821 419.192C334.675 415.021 333.872 410.784 333.419 406.514C332.937 402.234 332.75 397.934 332.858 393.635C332.977 389.334 333.458 385.046 334.296 380.806C335.214 376.572 336.661 372.438 338.611 368.479C338.036 370.563 337.173 372.572 336.828 374.693C336.483 376.814 335.922 378.873 335.533 380.969C334.915 385.185 334.54 389.424 334.411 393.672C334.282 397.915 334.411 402.171 334.627 406.438C334.728 408.56 334.9 410.694 335.131 412.815C335.361 414.936 335.533 417.07 335.821 419.192Z" fill="#2B3448"/>
<path opacity="0.37" d="M122.353 314.993C139.613 318.709 156.843 322.52 174.045 326.429L225.621 338.203L277.111 350.291L302.827 356.429L328.5 362.705L302.611 357.044L276.852 351.283L225.276 339.496L173.786 327.42C156.599 323.341 139.454 319.236 122.353 314.993Z" fill="#2B3448"/>
<g opacity="0.41">
<path d="M166.753 379.049L119.362 366.936L122.066 319.601L168.694 330.371L166.753 379.049ZM120.973 366.497L165.156 377.794L167.055 330.873L123.562 320.831L120.973 366.497Z" fill="white"/>
<path d="M143.942 349.714L121.864 332.228L145.121 325.613L167.731 343.112L143.942 349.714ZM124.051 332.718L143.999 348.497L165.444 342.547L145.064 326.743L124.051 332.718Z" fill="white"/>
<path d="M142.547 362.254L120.397 344.492L143.74 337.939L166.422 355.714L142.547 362.254ZM122.598 345.032L142.604 361.061L164.178 355.162L143.726 339.107L122.598 345.032Z" fill="white"/>
<path d="M142.043 372.61L119.822 354.622L143.237 348.107L166.005 366.12L142.043 372.61ZM122.023 355.162L142.158 371.405L163.732 365.543L143.179 349.287L122.023 355.162Z" fill="white"/>
</g>
<g opacity="0.41">
<path d="M219.048 392.229L171.585 380.116L174.289 332.793L220.918 343.551L219.048 392.229ZM173.254 379.677L217.437 390.974L219.321 344.015L175.828 333.973L173.254 379.677Z" fill="white"/>
<path d="M196.309 362.844L174.16 345.408L197.402 338.793L220.012 356.291L196.309 362.844ZM176.418 345.873L196.309 361.714L217.739 355.751L197.359 339.96L176.418 345.873Z" fill="white"/>
<path d="M194.871 375.396L172.721 357.647L196.05 351.082L218.746 368.856L194.871 375.396ZM174.879 358.212L194.871 374.241L216.445 368.342L195.964 352.3L174.879 358.212Z" fill="white"/>
<path d="M194.324 385.789L172.103 367.864L195.532 361.35L218.3 379.363L194.324 385.789ZM174.304 368.354L194.439 384.584L216.013 378.735L195.489 362.417L174.304 368.354Z" fill="white"/>
</g>
<g opacity="0.41">
<path d="M272.825 405.409L225.362 393.308L228.08 345.973L274.709 356.743L272.825 405.409ZM227.03 392.856L271.228 404.154L273.113 357.22L229.619 347.178L227.03 392.856Z" fill="white"/>
<path d="M250.014 376.086L227.951 358.6L251.193 351.973L273.817 369.546L250.014 376.086ZM230.123 359.077L250.072 374.856L271.516 368.893L251.121 353.102L230.123 359.077Z" fill="white"/>
<path d="M248.619 388.627L226.513 370.865L249.841 364.3L272.537 382.087L248.619 388.627ZM228.656 371.405L248.676 387.422L270.25 381.522L249.741 365.48L228.656 371.405Z" fill="white"/>
<path d="M248.087 398.97L225.865 380.982L249.28 374.479L272.048 392.492L248.087 398.97ZM228.095 381.534L248.231 397.777L269.805 391.915L249.28 375.597L228.095 381.534Z" fill="white"/>
</g>
<g opacity="0.41">
<path d="M326.659 417.924L279.268 405.811L281.972 358.476L328.63 369.246L326.659 417.924ZM280.879 405.372L325.063 416.669L326.961 369.748L283.468 359.706L280.879 405.372Z" fill="white"/>
<path d="M303.848 388.589L281.771 371.103L305.013 364.488L327.637 381.987L303.848 388.589ZM283.957 371.631L303.906 387.422L325.35 381.459L304.956 365.656L283.957 371.631Z" fill="white"/>
<path d="M302.453 401.129L280.304 383.367L303.633 376.814L326.328 394.589L302.453 401.129ZM282.504 383.907L302.511 399.936L324.085 394.037L303.618 377.982L282.504 383.907Z" fill="white"/>
<path d="M301.95 411.485L279.729 393.497L303.144 386.982L325.911 404.995L301.95 411.485ZM281.929 394.037L302.065 410.28L323.639 404.418L303.115 388.162L281.929 394.037Z" fill="white"/>
</g>
<mask id="mask0_1_936" style="mask-type:luminance" maskUnits="userSpaceOnUse" x="342" y="331" width="159" height="92">
<path d="M352.721 358.839C352.721 358.839 333.951 391.689 346.824 422.631L500.819 379.162C496.954 371.765 494.882 363.751 494.734 355.623C494.585 347.495 496.363 339.427 499.956 331.927L352.721 358.839Z" fill="white"/>
</mask>
<g mask="url(#mask0_1_936)">
<path d="M352.721 358.84C352.721 358.84 333.951 391.69 346.824 422.632L500.819 379.162C500.819 379.162 490.751 349.526 502.919 323.441L352.721 358.84Z" fill="white"/>
<path opacity="0.1" d="M470.213 382.714C448.969 389.807 427.769 395.443 404.973 396.924C382.392 398.393 359.293 393.51 345.414 377.38C342.02 389.643 340.064 406.401 346.852 422.631L500.819 379.162C500.819 379.162 500.042 376.89 499.194 373.062C489.457 376.087 479.849 379.501 470.213 382.714Z" fill="#74471B"/>
<g opacity="0.22">
<path d="M505.548 338.715L338.432 370.97L338.681 371.95L505.797 339.696L505.548 338.715Z" fill="#74471B"/>
<path d="M505.472 346.757L338.984 381.399L339.251 382.376L505.738 347.733L505.472 346.757Z" fill="#74471B"/>
<path d="M504.107 357.485L337.619 392.128L337.886 393.105L504.374 358.462L504.107 357.485Z" fill="#74471B"/>
<path d="M503.052 364.645L337.216 401.591L337.501 402.564L503.337 365.618L503.052 364.645Z" fill="#74471B"/>
<path d="M503.567 372.54L339.209 414.214L339.53 415.178L503.888 373.504L503.567 372.54Z" fill="#74471B"/>
</g>
</g>
<path opacity="0.11" d="M343.458 364.927L108.316 311.479C108.316 311.479 104.533 325.286 106.878 333.257L342.006 388.024L348.765 365.593L343.458 364.927Z" fill="white"/>
<path opacity="0.1" d="M107.626 368.631L348.075 425.933C348.075 425.933 342.696 406.502 342.696 404.518L106.82 352.388C106.82 352.388 105.425 365.078 107.626 368.631Z" fill="#2B3448"/>
<path d="M151.881 256.888C151.881 256.888 147.566 280.073 151.162 295.098C151.162 295.098 300.454 365.894 311.227 368.392C321.999 370.89 527.973 336.484 527.973 336.484L500.646 330.848L499.352 288.47L524.335 284.491L350.693 223.687L151.881 256.888Z" fill="#ECB751"/>
<path d="M507.881 286.964L314.089 313.889C314.089 313.889 302.841 344.994 314.089 362.116L513.332 332.718C510.281 317.598 508.46 302.308 507.881 286.964Z" fill="white"/>
<path opacity="0.1" d="M409.877 343.036C376.38 344.141 339.719 343.124 310.119 329.981C308.479 340.174 308.163 353.103 314.089 362.128L513.332 332.718L513.13 331.751C479.044 337.613 444.583 341.894 409.877 343.036Z" fill="#74471B"/>
<g opacity="0.35">
<path d="M167.745 265.185L159.245 262.272L155.031 277.587L158.857 295.675L167.112 299.428L171.787 284.277L167.745 265.185Z" stroke="#2B3448" stroke-miterlimit="10"/>
<path d="M165.171 273.984L161.431 272.578L159.504 279.369L161.23 287.541L164.926 289.11L166.954 282.357L165.171 273.984Z" fill="#2B3448"/>
<path d="M171.844 301.587L154.858 293.855L155.131 260.553L172.621 266.54L171.844 301.587Z" stroke="#2B3448" stroke-miterlimit="10"/>
<path d="M220.098 283.135L208.534 279.168L202.134 296.403L206.593 317.378L217.725 322.449L224.844 305.478L220.098 283.135Z" stroke="#2B3448" stroke-miterlimit="10"/>
<path d="M216.172 293.076L211.08 291.168L208.146 298.812L210.174 308.302L215.179 310.424L218.243 302.842L216.172 293.076Z" fill="#2B3448"/>
<path d="M224.168 325.374L201.214 314.942L202.983 276.908L226.8 285.055L224.168 325.374Z" stroke="#2B3448" stroke-miterlimit="10"/>
<path d="M293.824 308.416L277.168 302.704L267.057 322.349L272.393 347.303L288.243 354.521L299.591 335.341L293.824 308.416Z" stroke="#2B3448" stroke-miterlimit="10"/>
<path d="M287.538 319.814L280.232 317.077L275.601 325.763L278.017 337.098L285.165 340.124L290.055 331.538L287.538 319.814Z" fill="#2B3448"/>
<path d="M297.491 358.714L264.814 343.864L269.258 299.566L303.618 311.316L297.491 358.714Z" stroke="#2B3448" stroke-miterlimit="10"/>
<path d="M187.564 308.88L183.839 307.185L185.004 270.771L188.859 272.089L187.564 308.88Z" fill="#2B3448"/>
<path d="M244.462 334.776L239.572 332.554L242.88 290.554L247.986 292.299L244.462 334.776Z" fill="#2B3448"/>
</g>
<path opacity="0.11" d="M151.881 256.888L314.089 313.889C314.089 313.889 308.897 331.136 309.285 335.228L150.098 270.645C150.098 270.645 150.961 258.356 151.881 256.888Z" fill="white"/>
<path opacity="0.26" d="M151.162 295.06L311.227 368.392C311.227 368.392 304.625 359.881 305.013 344.667L150.098 282.809C150.098 282.809 150.285 293.528 151.162 295.06Z" fill="#DC903C"/>
<mask id="mask1_1_936" style="mask-type:luminance" maskUnits="userSpaceOnUse" x="309" y="286" width="205" height="77">
<path d="M507.881 286.964L314.089 313.889C314.089 313.889 302.841 344.994 314.089 362.116L513.332 332.718C510.281 317.598 508.46 302.308 507.881 286.964Z" fill="white"/>
</mask>
<g mask="url(#mask1_1_936)">
<g opacity="0.44">
<path d="M512.942 292.322L305.574 322.349L305.699 323.005L513.067 292.979L512.942 292.322Z" fill="#74471B"/>
</g>
<g opacity="0.44">
<path d="M513.624 299.842L306.256 329.868L306.38 330.524L513.749 300.498L513.624 299.842Z" fill="#74471B"/>
</g>
<g opacity="0.44">
<path d="M512.822 308.167L305.454 338.193L305.579 338.85L512.947 308.823L512.822 308.167Z" fill="#74471B"/>
</g>
<g opacity="0.44">
<path d="M513.235 316.461L305.873 346.519L305.997 347.175L513.36 317.117L513.235 316.461Z" fill="#74471B"/>
</g>
<g opacity="0.44">
<path d="M513.627 325.569L306.264 355.627L306.389 356.283L513.751 326.225L513.627 325.569Z" fill="#74471B"/>
</g>
</g>
<path d="M126.754 189.242C126.754 189.242 110.933 216.858 126.035 248.126L338.496 305.755L499.266 267.256L485.703 264.294L482.697 211.686L497.827 208.033L296.858 155.413L126.754 189.242Z" fill="#5CA28B"/>
<path d="M485.401 211.033L334.9 238.724C334.9 238.724 311.888 276.306 341.373 299.491L487.069 264.407L485.401 211.033Z" fill="white"/>
<path opacity="0.1" d="M422.735 222.958C428.215 222.958 433.695 222.782 439.16 222.393C441.62 222.23 444.065 221.992 446.51 221.753L447.502 221.653L449.171 221.427C458.404 220.046 467.537 218.364 476.613 216.28C479.561 215.602 482.495 214.887 485.429 214.159L485.329 211.033L420.679 222.933L422.735 222.958Z" fill="#74471B"/>
<path opacity="0.1" d="M419.729 269.616C398.155 269.441 376.668 267.47 355.194 266.164C345.636 265.688 336.127 264.643 326.731 263.039C325.293 274.826 327.68 288.709 341.373 299.441L487.069 264.357L486.983 261.721C465.078 266.541 442.842 269.805 419.729 269.616Z" fill="#74471B"/>
<path opacity="0.38" d="M128.869 245.277C126.719 241.114 125.214 236.719 124.396 232.209C123.523 227.703 123.138 223.134 123.245 218.565C123.245 217.422 123.389 216.293 123.446 215.15L123.561 213.443L123.792 211.736L124.281 208.347L125.014 204.983C125.446 202.736 126.237 200.552 126.855 198.343C127.474 196.133 128.495 194.025 129.372 191.891C128.15 196.309 126.898 200.677 126.165 205.159L125.604 208.51L125.23 211.862L125.043 213.544L124.942 215.226C124.942 216.356 124.798 217.473 124.77 218.602C124.669 223.098 124.928 227.595 125.546 232.059C125.834 234.306 126.294 236.515 126.826 238.724C127.358 240.942 128.04 243.13 128.869 245.277Z" fill="#2B3448"/>
<path opacity="0.38" d="M322.546 296.779C320.409 292.632 318.914 288.254 318.102 283.762C317.234 279.255 316.854 274.687 316.965 270.118C316.965 268.975 317.095 267.846 317.167 266.703L317.282 264.996L317.512 263.289L317.986 259.9L318.72 256.536C319.151 254.289 319.942 252.105 320.561 249.895C321.179 247.686 322.201 245.577 323.078 243.456C321.855 247.862 320.618 252.243 319.885 256.712L319.324 260.063L318.95 263.415L318.749 265.097L318.648 266.779C318.648 267.908 318.504 269.026 318.49 270.155C318.382 274.651 318.641 279.148 319.267 283.612C319.564 285.851 319.991 288.076 320.547 290.277C321.06 292.478 321.727 294.65 322.546 296.779Z" fill="#2B3448"/>
<g opacity="0.23">
<path d="M146.631 232.611L176.705 237.042L150.414 219.055L136.031 220.724L146.631 232.611Z" fill="#2B3448"/>
<path d="M150.788 218.214L179.309 237.645L161 207.983L145.812 202.397L150.788 218.214Z" fill="#2B3448"/>
<path d="M146.516 233.992L178.633 238.247L150.213 247.574L136.664 242.151L146.516 233.992Z" fill="#2B3448"/>
</g>
<path opacity="0.23" d="M192.685 210.606C192.685 210.606 179.467 237.695 188.097 263.792L221.436 273.834C221.436 273.834 213.971 230.176 228.915 220.134L192.685 210.606Z" fill="#2B3448"/>
<path opacity="0.23" d="M266.856 230.176C266.856 230.176 253.063 259.775 262.268 284.365L272.609 287.88C272.609 287.88 269.733 246.733 280.088 233.176L266.856 230.176Z" fill="#2B3448"/>
<mask id="mask2_1_936" style="mask-type:luminance" maskUnits="userSpaceOnUse" x="326" y="211" width="162" height="89">
<path d="M485.401 211.033L334.9 238.724C334.9 238.724 311.888 276.306 341.373 299.491L487.069 264.407L485.401 211.033Z" fill="white"/>
</mask>
<g mask="url(#mask2_1_936)">
<g opacity="0.27">
<path d="M500.763 211.422L328.049 244.013L328.21 244.663L500.925 212.072L500.763 211.422Z" fill="#74471B"/>
<path d="M497.889 218.706L325.452 252.4L325.619 253.05L498.055 219.355L497.889 218.706Z" fill="#74471B"/>
<path d="M495.797 225.317L324.01 261.45L324.189 262.097L495.976 225.964L495.797 225.317Z" fill="#74471B"/>
<path d="M495.043 232.649L323.256 268.782L323.434 269.429L495.221 233.296L495.043 232.649Z" fill="#74471B"/>
<path d="M495.247 239.971L323.46 276.104L323.638 276.75L495.425 240.617L495.247 239.971Z" fill="#74471B"/>
<path d="M496.442 246.841L324.655 282.974L324.833 283.62L496.62 247.487L496.442 246.841Z" fill="#74471B"/>
<path d="M332.412 296.578L332.225 295.938L503.408 257.69L503.595 258.331L332.412 296.578Z" fill="#74471B"/>
<path d="M500.095 252.772L328.308 288.905L328.487 289.552L500.274 253.419L500.095 252.772Z" fill="#74471B"/>
</g>
</g>
<path opacity="0.11" d="M126.754 189.242L334.9 238.724C334.9 238.724 326.659 256.298 325.509 264.796L119.664 209.565C119.664 209.565 122.957 192.468 126.754 189.242Z" fill="white"/>
<path opacity="0.1" d="M124.266 247.737L338.568 305.755C338.568 305.755 326.602 301.675 322.747 283.361L119.664 229.674C119.664 229.674 122.54 244.724 124.266 247.737Z" fill="#2B3448"/>
<path d="M143.266 127.847C143.266 127.847 138.246 165.429 142.547 175.459L302.611 232.46L495.684 203.024L476.297 199.259L474.024 158.752L490.981 157.107L298.253 107.801L143.266 127.847Z" fill="#2B3448"/>
<path d="M479.173 158.551L307.631 177.97C307.631 177.97 287.495 211.159 312.65 224.942L480.611 201.092C480.611 201.092 479.173 156.668 479.173 158.551Z" fill="white"/>
<path opacity="0.1" d="M411.747 208.937C390.705 208.849 369.361 207.267 348.391 205.686C335.907 204.732 323.02 203.489 311.701 198.43C308.105 196.77 304.729 194.771 301.633 192.468C298.757 203.163 298.484 217.159 312.679 224.941L427.295 208.698C422.117 208.861 416.91 208.949 411.747 208.937Z" fill="#74471B"/>
<g opacity="0.54">
<path d="M156.253 156.818C156.253 157.22 155.621 157.358 154.916 157.12C154.211 156.881 153.636 156.354 153.664 155.94C153.693 155.526 154.283 155.4 154.988 155.639C155.692 155.877 156.268 156.404 156.253 156.818Z" fill="#ECB751"/>
<path d="M176.892 151.86C176.892 152.287 176.217 152.425 175.454 152.186C174.692 151.948 174.088 151.395 174.117 150.931C174.145 150.467 174.778 150.354 175.555 150.592C176.332 150.831 176.921 151.433 176.892 151.86Z" fill="#ECB751"/>
<path d="M175.425 175.183C175.425 175.597 174.764 175.723 173.987 175.447C173.211 175.171 172.635 174.618 172.664 174.191C172.693 173.765 173.326 173.652 174.102 173.928C174.879 174.204 175.454 174.769 175.425 175.183Z" fill="#ECB751"/>
<path d="M197.33 170.789C197.33 171.228 196.597 171.354 195.777 171.078C194.957 170.801 194.339 170.224 194.339 169.822C194.339 169.421 195.058 169.258 195.863 169.534C196.669 169.81 197.359 170.35 197.33 170.789Z" fill="#ECB751"/>
<path d="M149.407 135.441L148.472 154.27H148.271L148.458 154.471L147.566 172.358L202.652 192.643L205.715 152.475L149.407 135.441ZM177.669 145.609L188.298 157.722L175.785 162.078L176.231 155.011L174.606 154.484L174.189 161.337L163.962 150.304L177.669 145.609ZM163.013 149.274L151.723 137.023L176.59 144.555L163.013 149.274ZM178.834 145.333L202.839 152.651L189.391 157.32L178.834 145.333ZM176.49 163.258L189.276 158.839L201.746 173.049L188.485 176.815L176.979 164.325L191.059 169.07L191.131 168.166L176.49 163.258ZM173.613 162.291L159.087 157.421V158.287L173.11 163.019L161.46 167.074L150.213 155.023L162.913 150.68L173.613 162.291ZM173.987 164.111L173.484 172.07L175.095 172.635L175.612 164.463L187.349 177.066L174.275 180.831L162.409 168.116L173.987 164.111ZM172.995 180.944L149.839 172.434L161.345 168.455L172.995 180.944ZM188.327 178.22L200.034 190.873L175.469 181.861L188.327 178.22ZM189.477 177.894L202.206 174.329L200.998 190.334L189.477 177.894ZM190.398 158.45L203.759 153.843L202.321 172.07L190.398 158.45ZM150.802 137.613L161.92 149.651L149.983 153.768L150.802 137.613ZM160.396 167.425L149.091 171.354L149.853 156.103L160.396 167.425Z" fill="#ECB751"/>
</g>
<g opacity="0.54">
<path d="M238.68 182.979C238.68 183.393 238.062 183.531 237.343 183.28C236.624 183.029 236.077 182.514 236.092 182.113C236.106 181.711 236.71 181.573 237.429 181.811C238.148 182.05 238.709 182.577 238.68 182.979Z" fill="#ECB751"/>
<path d="M259.334 178.021C259.334 178.447 258.658 178.598 257.896 178.359C257.133 178.121 256.529 177.569 256.558 177.104C256.587 176.64 257.22 176.527 257.996 176.778C258.773 177.029 259.348 177.594 259.334 178.021Z" fill="#ECB751"/>
<path d="M257.853 201.343C257.853 201.77 257.191 201.883 256.414 201.606C255.638 201.33 255.062 200.791 255.091 200.351C255.12 199.912 255.753 199.811 256.529 200.075C257.306 200.339 257.881 200.916 257.853 201.343Z" fill="#ECB751"/>
<path d="M279.729 196.949C279.729 197.389 279.009 197.514 278.19 197.238C277.37 196.962 276.751 196.385 276.751 195.983C276.751 195.581 277.47 195.431 278.29 195.694C279.11 195.958 279.729 196.51 279.729 196.949Z" fill="#ECB751"/>
<path d="M231.849 161.614L230.899 180.443L230.698 180.518L230.885 180.707L229.993 198.594L285.079 218.891L288.142 178.723L231.849 161.614ZM260.096 171.769L270.739 183.895L258.226 188.238L258.672 181.171L257.047 180.644L256.616 187.498L246.39 176.464L260.096 171.769ZM245.44 175.435L234.092 163.183L258.974 170.778L245.44 175.435ZM261.333 171.493L285.338 178.811L271.876 183.493L261.333 171.493ZM258.917 189.406L271.703 185L284.173 199.209L270.926 202.975L259.42 190.498L273.486 195.243V194.326L258.917 189.406ZM256.04 188.452L241.514 183.569V184.447L255.551 189.18L243.887 193.222L232.654 181.184L245.354 176.828L256.04 188.452ZM256.414 190.259L255.925 198.217L257.536 198.782L258.039 190.611L269.747 203.276L256.716 206.967L244.865 194.263L256.414 190.259ZM255.422 207.092L232.266 198.594L243.772 194.615L255.422 207.092ZM270.768 204.381L282.433 217.009L257.867 207.996L270.768 204.381ZM271.919 204.054L284.633 200.489L283.425 216.494L271.919 204.054ZM272.825 184.598L286.186 179.991L284.748 198.23L272.825 184.598ZM233.229 163.761L244.362 175.799L232.41 179.928L233.229 163.761ZM242.837 193.573L231.518 197.515L232.295 182.263L242.837 193.573Z" fill="#ECB751"/>
</g>
<mask id="mask3_1_936" style="mask-type:luminance" maskUnits="userSpaceOnUse" x="300" y="158" width="181" height="67">
<path d="M479.173 158.551L307.631 177.97C307.631 177.97 287.495 211.159 312.65 224.942L480.611 201.092C480.611 201.092 479.173 156.668 479.173 158.551Z" fill="white"/>
</mask>
<g mask="url(#mask3_1_936)">
<g opacity="0.31">
<path d="M491.778 174.442L297.321 197.177L297.423 197.836L491.88 175.101L491.778 174.442Z" fill="#74471B"/>
</g>
<g opacity="0.31">
<path d="M491.781 185.042L297.324 207.777L297.425 208.437L491.882 185.702L491.781 185.042Z" fill="#74471B"/>
</g>
<g opacity="0.31">
<path d="M297.563 219.921L297.462 219.268L491.643 194.766L491.743 195.431L297.563 219.921Z" fill="#74471B"/>
</g>
<g opacity="0.31">
<path d="M491.976 165.167L297.134 185.233L297.223 185.894L492.065 165.828L491.976 165.167Z" fill="#74471B"/>
</g>
</g>
<path d="M344.364 180.48C344.364 180.48 366.24 208.761 361.379 244.121L371.907 236.339L380.019 243.418C380.019 243.418 380.824 195.33 366.24 179.062L344.364 180.48Z" fill="#ECB751"/>
<path opacity="0.11" d="M143.266 127.848C143.266 127.848 303.848 172.698 303.848 174.819C303.848 176.941 293.306 191.79 295.736 205.937L141.842 152.89L143.266 127.848Z" fill="white"/>
<path d="M473.981 125.137H181.854V165.857H473.981V125.137Z" fill="#DC903C"/>
<path opacity="0.11" d="M473.981 157.133H181.854V165.857H473.981V157.133Z" fill="#2B3448"/>
<path opacity="0.11" d="M473.981 125.137H181.854V140.162H473.981V125.137Z" fill="white"/>
<path opacity="0.26" d="M223.363 125.137H197.69V165.857H223.363V125.137Z" fill="#74471B"/>
<path opacity="0.26" d="M246.059 125.137H241.701V165.857H246.059V125.137Z" fill="#74471B"/>
<path opacity="0.26" d="M410.553 125.137H264.397V165.857H410.553V125.137Z" fill="#74471B"/>
<path opacity="0.26" d="M447.028 125.137H428.891V165.857H447.028V125.137Z" fill="#74471B"/>
<path d="M181.854 125.137L179.697 93.1905L448.135 91.3076L473.981 125.137H181.854Z" fill="#DC903C"/>
<path d="M195.489 71.261V107.601L380.666 125.137L451.012 105.718L441.677 102.592L442.397 73.1439L449.573 70.646L276.593 56.8633L195.489 71.261Z" fill="#DE6C6B"/>
<path d="M445.978 71.7256L379.961 87.5543V117.618V121.383L445.057 103.371L445.978 71.7256Z" fill="white"/>
<path d="M202.661 77.9797L202.488 79.3018L366.169 95.5778L366.341 94.2557L202.661 77.9797Z" fill="#ECB751"/>
<path d="M201.846 86.468L201.673 87.79L365.353 104.066L365.526 102.744L201.846 86.468Z" fill="#ECB751"/>
<path d="M201.855 94.9602L201.683 96.2822L365.363 112.558L365.535 111.236L201.855 94.9602Z" fill="#ECB751"/>
<path d="M201.855 102.732L201.683 104.054L365.363 120.33L365.536 119.008L201.855 102.732Z" fill="#ECB751"/>
<mask id="mask4_1_936" style="mask-type:luminance" maskUnits="userSpaceOnUse" x="379" y="71" width="67" height="51">
<path d="M445.978 71.7373L379.947 87.5535V117.629V121.383L445.057 103.382L445.978 71.7373Z" fill="white"/>
</mask>
<g mask="url(#mask4_1_936)">
<g opacity="0.37">
<path d="M376.193 92.8255L376.006 92.1853L455.154 73.6201L455.341 74.2728L376.193 92.8255Z" fill="#74471B"/>
</g>
<g opacity="0.37">
<path d="M377.013 101.324L376.812 100.671L455.959 82.1182L456.161 82.7583L377.013 101.324Z" fill="#74471B"/>
</g>
<g opacity="0.37">
<path d="M377.142 108.83L376.941 108.19L456.089 89.625L456.29 90.2652L377.142 108.83Z" fill="#74471B"/>
</g>
<g opacity="0.37">
<path d="M377.948 116.613L377.746 115.972L456.894 97.4072L457.096 98.0474L377.948 116.613Z" fill="#74471B"/>
</g>
</g>
<path opacity="0.1" d="M195.489 107.6L380.666 125.136L380.019 110.462L196.079 94.1943L195.489 107.6Z" fill="#2B3448"/>
<path opacity="0.11" d="M195.489 71.2607L379.961 87.5539L380.019 96.3156L196.079 82.1689L195.489 71.2607Z" fill="white"/>
<path opacity="0.1" d="M379.947 87.5537V121.383L438.355 104.801C438.355 104.801 380.695 119.814 379.947 87.5537Z" fill="#74471B"/>
<path d="M168.824 32.0597C168.824 32.0597 160.352 47.1227 167.759 61.6083L321.539 87.1653L451.702 69.0018L441.821 67.4578L443.576 37.9092L451.343 36.3777L298.268 14.21C298.268 14.21 174.117 25.9089 168.824 32.0597Z" fill="#4D82A3"/>
<mask id="mask5_1_936" style="mask-type:luminance" maskUnits="userSpaceOnUse" x="322" y="37" width="124" height="48">
<path d="M328.817 55.7705C328.817 55.7705 317.167 69.9297 326.343 84.3903L443.446 67.4569L445.201 37.9082L328.817 55.7705Z" fill="white"/>
</mask>
<g mask="url(#mask5_1_936)">
<path d="M328.817 55.7705C328.817 55.7705 317.167 69.9297 326.343 84.3903L443.446 67.4569L445.201 37.9082L328.817 55.7705Z" fill="white"/>
<path opacity="0.1" d="M388.476 75.3902C375.172 75.1768 360.775 74.8504 347.859 71.8252C339.445 69.8419 332.312 65.9506 325.25 61.7832C322.805 67.2561 320.935 75.7667 326.343 84.3778L388.821 75.3902H388.476Z" fill="#74471B"/>
<g opacity="0.4">
<path d="M457.545 41.9874L316.951 61.8184L317.073 62.477L457.667 42.646L457.545 41.9874Z" fill="#74471B"/>
</g>
<g opacity="0.4">
<path d="M457.532 49.0713L316.937 68.9023L317.059 69.561L457.654 49.73L457.532 49.0713Z" fill="#74471B"/>
</g>
<g opacity="0.4">
<path d="M457.535 56.1807L316.941 76.0117L317.063 76.6703L457.657 56.8393L457.535 56.1807Z" fill="#74471B"/>
</g>
<g opacity="0.4">
<path d="M457.535 61.836L316.941 81.667L317.063 82.3256L457.657 62.4946L457.535 61.836Z" fill="#74471B"/>
</g>
</g>
<path d="M326.156 31.0301C333.606 32.1222 334.584 33.7289 328.356 34.6076C320.095 35.4681 311.738 35.3371 303.518 34.2185C296.039 33.1264 295.061 31.5197 301.317 30.641C309.579 29.7931 317.934 29.924 326.156 31.0301Z" fill="#ECB751"/>
<path d="M294.341 30.3524C290.908 30.4618 287.471 30.4115 284.043 30.2018C282.303 30.1014 280.592 29.9507 279.211 29.7624C277.126 29.5144 275.133 28.8531 273.386 27.8294C270.164 26.4611 261.693 25.2435 252.2 24.7791C260.45 24.5155 268.711 24.6831 276.938 25.2812C282.412 25.7324 287.772 26.9179 292.831 28.7959C294.269 29.2729 295.923 29.7499 297.39 30.2394L294.341 30.3524Z" fill="#ECB751"/>
<path d="M332.944 35.2228C336.387 35.0986 339.834 35.1363 343.271 35.3358C344.997 35.4362 346.694 35.5743 348.075 35.7751C350.136 36.0213 352.105 36.6785 353.828 37.6957C357.021 39.0513 365.435 40.2062 374.841 40.7208C366.654 40.9922 358.455 40.8329 350.29 40.2438C344.843 39.786 339.508 38.605 334.469 36.7417C333.031 36.2521 331.377 35.7751 329.924 35.2981L332.944 35.2228Z" fill="#ECB751"/>
<path d="M309.472 29.398C306.703 29.2185 303.955 28.8364 301.259 28.2557C300.553 28.1548 299.889 27.8952 299.332 27.5026C298.814 26.8373 302.007 26.3478 303.992 25.808C308.062 24.7034 306.869 23.1343 301.116 21.8916C308.623 22.6448 316.735 23.5234 319.626 24.7285C322.747 25.9837 318.662 27.239 315.628 28.3813C314.477 28.8081 313.47 29.2474 312.305 29.6365L309.472 29.398Z" fill="#ECB751"/>
<path d="M317.886 36.2141C320.656 36.3874 323.404 36.7696 326.098 37.3564C326.799 37.4541 327.458 37.7093 328.011 38.097C328.529 38.7623 325.35 39.2644 323.366 39.8041C319.295 40.9087 320.417 42.4778 326.156 43.7205C318.662 42.9548 310.551 42.0887 307.66 40.8836C304.539 39.6284 308.623 38.3731 311.672 37.2308C312.809 36.8041 313.815 36.3647 314.98 35.9756L317.886 36.2141Z" fill="#ECB751"/>
<path d="M324.833 30.2018C322.977 29.7122 322.114 29.185 322.431 28.6955C322.589 28.4444 323.049 28.2059 323.984 28.0176C327.857 27.578 331.757 27.3516 335.663 27.3398C344.206 26.9883 350.045 25.8461 350.347 24.5029C353.771 25.7582 357.266 27.0134 354.59 28.0679C351.714 29.2227 342.71 29.6244 334.987 30.0888L326.357 30.6411L324.833 30.2018Z" fill="#ECB751"/>
<path d="M302.525 35.4363C304.38 35.9133 305.243 36.453 304.927 36.9426C304.769 37.1811 304.309 37.4196 303.374 37.6079C299.491 38.0457 295.581 38.2762 291.666 38.2982C283.037 38.6497 277.183 39.792 276.924 41.1351C273.472 39.9426 269.963 38.6246 272.609 37.5702C275.486 36.4154 284.547 36.0011 292.299 35.5367L301.015 34.9844L302.525 35.4363Z" fill="#ECB751"/>
<path d="M336.54 32.7116C338.442 32.0841 340.448 31.7281 342.48 31.6572C343.918 31.5568 345.515 31.4814 347.255 31.4814C351.815 31.4814 356.072 32.0463 360.372 32.4103C369.266 33.1666 378.22 33.217 387.124 32.561C382.234 34.0292 377.107 34.8088 371.936 34.8706C363.06 34.9331 354.186 34.5643 345.357 33.766L335.418 33.1007L336.54 32.7116Z" fill="#ECB751"/>
<path d="M290.774 32.9376C288.87 33.5724 286.858 33.9287 284.82 33.992C283.382 34.1049 281.785 34.1677 280.031 34.1677C275.428 34.1677 271.157 33.6028 266.842 33.2388C257.866 32.4801 248.83 32.4339 239.845 33.1007C244.783 31.6204 249.957 30.8324 255.177 30.766C264.112 30.7012 273.043 31.0742 281.929 31.8831L291.911 32.5484L290.774 32.9376Z" fill="#ECB751"/>
<path d="M187.277 34.9717C187.277 34.9717 176.921 52.7084 188.039 65.0978L201.07 67.1062C201.07 67.1062 194.166 46.0305 204.133 36.9801L187.277 34.9717Z" fill="#ECB751"/>
<path d="M278.894 50.4863C278.894 50.4863 268.553 68.2231 279.657 80.6124L292.702 82.6208C292.702 82.6208 285.798 61.5451 295.765 52.4947L278.894 50.4863Z" fill="#ECB751"/>
<path opacity="0.11" d="M168.824 32.0596L328.817 55.7713C328.817 55.7713 322.503 64.2192 321.913 70.8344L164.509 45.905C164.509 45.905 165.559 34.4948 168.824 32.0596Z" fill="white"/>
<g opacity="0.4">
<path d="M178.408 32.0092L178.142 33.3193L319.946 55.2529L320.212 53.9428L178.408 32.0092Z" fill="#2B3448"/>
</g>
<path opacity="0.18" d="M320.834 82.2947C320.46 81.0896 320.144 79.8846 319.885 78.6795L165.084 56.085L167.759 61.6081L321.539 87.1651C320.727 85.6458 320.48 83.9425 320.834 82.2947Z" fill="#2B3448"/>
<path opacity="0.11" d="M189.578 27.0763C189.578 27.0763 248.964 18.1264 298.268 14.21L389.037 27.0763H189.578Z" fill="white"/>
</g>
<defs>
<clipPath id="clip0_1_936">
<rect width="640" height="442" fill="white"/>
</clipPath>
</defs>
</svg>
